<?xml version="1.0" encoding="utf-8"?>
<!-- Generator: Adobe Illustrator 18.0.0, SVG Export Plug-In . SVG Version: 6.00 Build 0)  -->
<!DOCTYPE svg PUBLIC "-//W3C//DTD SVG 1.1//EN" "http://www.w3.org/Graphics/SVG/1.1/DTD/svg11.dtd">
<svg version="1.1" id="Layer_1" xmlns="http://www.w3.org/2000/svg" xmlns:xlink="http://www.w3.org/1999/xlink" x="0px" y="0px"
	 viewBox="0 0 50 50" enable-background="new 0 0 50 50" xml:space="preserve">
<g id="Layer_1_1_" display="none">
	<g display="inline">
		<g>
			<path d="M13,4.1L13,4.1c0.5,0,1.2,0.4,1.9,1.1l9.6,9.6c0.8,0.8,1.1,1.4,1.1,2c0,0.6-0.6,1.4-1.5,2.3l-4.7,4.7
				c-1,1-1.8,1.5-2.4,1.5c-0.5,0-1.2-0.4-1.9-1.1l-9.6-9.6c-1.3-1.3-1.7-2.2,0.4-4.3l4.7-4.7C11.5,4.6,12.4,4.1,13,4.1 M13,2.1
				c-1.2,0-2.5,0.7-3.8,2.1L4.4,8.9c-2.5,2.5-2.9,4.6-0.4,7.1l9.6,9.6c1.1,1.1,2.2,1.7,3.3,1.7c1.2,0,2.5-0.7,3.8-2.1l4.7-4.7
				c2.5-2.5,2.9-4.6,0.4-7.1l-9.6-9.6C15.1,2.7,14,2.1,13,2.1L13,2.1z"/>
		</g>
		<g>
			<path d="M33.3,24.5c0.5,0,1.2,0.4,1.9,1.1l9.6,9.6c0.8,0.8,1.1,1.4,1.1,2c0,0.6-0.6,1.4-1.5,2.3l-4.7,4.7c-1,1-1.8,1.5-2.4,1.5
				c-0.5,0-1.2-0.4-1.9-1.1L25.8,35c-0.8-0.8-1.1-1.4-1.1-2c0-0.6,0.6-1.4,1.5-2.3l4.7-4.7C31.9,25,32.7,24.5,33.3,24.5 M33.3,22.5
				c-1.2,0-2.5,0.7-3.8,2.1l-4.7,4.7c-2.5,2.5-2.9,4.6-0.4,7.1l9.6,9.6c1.1,1.1,2.2,1.7,3.3,1.7c1.2,0,2.5-0.7,3.8-2.1l4.7-4.7
				c2.5-2.5,2.9-4.6,0.4-7.1l-9.6-9.6C35.5,23,34.4,22.5,33.3,22.5L33.3,22.5z"/>
		</g>
		
			<line fill="none" stroke="#000000" stroke-width="2" stroke-linecap="round" stroke-miterlimit="10" x1="20" y1="19.8" x2="30.5" y2="30.2"/>
	</g>
</g>
<g id="Layer_2" display="none">
	<g id="Layer_4" display="inline">
		
			<line fill="none" stroke="#010101" stroke-width="2" stroke-linecap="round" stroke-miterlimit="10" x1="25.3" y1="3.5" x2="25.3" y2="48.2"/>
		
			<line fill="none" stroke="#010101" stroke-width="2" stroke-linecap="round" stroke-miterlimit="10" x1="3" y1="25.8" x2="47.7" y2="25.8"/>
	</g>
</g>
<g id="Layer_3" display="none">
	<g id="Layer_3_1_" display="inline">
		
			<line fill="none" stroke="#000000" stroke-width="3" stroke-linecap="round" stroke-miterlimit="10" x1="36.6" y1="2.8" x2="14.6" y2="24.8"/>
		
			<line fill="none" stroke="#000000" stroke-width="3" stroke-linecap="round" stroke-miterlimit="10" x1="14.6" y1="24.8" x2="36.6" y2="46.8"/>
	</g>
</g>
<g id="Layer_4_1_">
	<g id="Layer_3_3_">
		<g>
			<path d="M14.6,23.5c0.4,0,0.8,0.1,1.1,0.4l22.4,21.6c0.6,0.6,0.6,1.5,0,2.1c-0.6,0.6-1.5,0.6-2.1,0L13.6,26.1
				c-0.6-0.6-0.6-1.5,0-2.1C13.8,23.7,14.2,23.6,14.6,23.5z"/>
		</g>
		<g>
			<path d="M36.1,1.1c0.4,0,0.8,0.1,1.1,0.4c0.6,0.6,0.6,1.5,0,2.1L15.7,26.1c-0.6,0.6-1.5,0.6-2.1,0c-0.6-0.6-0.6-1.5,0-2.1
				L35.1,1.6C35.4,1.3,35.8,1.1,36.1,1.1z"/>
		</g>
	</g>
</g>
</svg>
